<svg width="1173" height="273" viewBox="0 0 1173 273" fill="none" xmlns="http://www.w3.org/2000/svg">
<path fill-rule="evenodd" clip-rule="evenodd" d="M102.273 191.1C93.2313 191.1 84.5601 187.505 78.1668 181.105C71.7735 174.705 68.1818 166.026 68.1818 156.975V0H0V156.975C0 213.513 45.7909 259.35 102.273 259.35H177.273V191.1H102.273ZM306.818 68.25C298.76 68.25 290.78 69.8388 283.335 72.9257C275.89 76.0126 269.126 80.5371 263.428 86.241C257.729 91.9448 253.209 98.7162 250.126 106.169C247.042 113.621 245.455 121.609 245.455 129.675C245.455 137.741 247.042 145.729 250.126 153.181C253.209 160.634 257.729 167.405 263.428 173.109C269.126 178.813 275.89 183.337 283.335 186.424C290.78 189.511 298.76 191.1 306.818 191.1C323.093 191.1 338.701 184.628 350.209 173.109C361.717 161.59 368.182 145.966 368.182 129.675C368.182 113.384 361.717 97.7604 350.209 86.241C338.701 74.7215 323.093 68.25 306.818 68.25ZM177.273 129.675C177.273 58.0603 235.275 0 306.818 0C378.361 0 436.364 58.0603 436.364 129.675C436.364 201.29 378.361 259.35 306.818 259.35C235.275 259.35 177.273 201.29 177.273 129.675ZM1043.18 68.25C1026.91 68.25 1011.3 74.7215 999.791 86.241C988.283 97.7604 981.818 113.384 981.818 129.675C981.818 145.966 988.283 161.59 999.791 173.109C1011.3 184.628 1026.91 191.1 1043.18 191.1C1059.46 191.1 1075.06 184.628 1086.57 173.109C1098.08 161.59 1104.55 145.966 1104.55 129.675C1104.55 113.384 1098.08 97.7604 1086.57 86.241C1075.06 74.7215 1059.46 68.25 1043.18 68.25ZM913.636 129.675C913.636 58.0603 971.639 0 1043.18 0C1114.73 0 1172.73 58.0603 1172.73 129.675C1172.73 201.29 1114.73 259.35 1043.18 259.35C971.639 259.35 913.636 201.29 913.636 129.675ZM579.545 0C508.002 0 450 58.0603 450 129.675C450 201.29 508.002 259.35 579.545 259.35H770.455C783.88 259.35 796.827 257.302 809.005 253.508L845.455 273L884.782 199.263C894.772 180.492 899.998 159.55 900 138.281V129.675C900 58.0603 841.998 0 770.455 0H579.545ZM831.818 129.675C831.818 113.384 825.353 97.7604 813.845 86.241C802.337 74.7215 786.729 68.25 770.455 68.25H579.545C571.487 68.25 563.508 69.8388 556.063 72.9257C548.618 76.0126 541.853 80.5371 536.155 86.241C530.457 91.9448 525.937 98.7162 522.853 106.169C519.769 113.621 518.182 121.609 518.182 129.675C518.182 137.741 519.769 145.729 522.853 153.181C525.937 160.634 530.457 167.405 536.155 173.109C541.853 178.813 548.618 183.337 556.063 186.424C563.508 189.511 571.487 191.1 579.545 191.1H770.455C786.647 191.1 802.183 184.695 813.677 173.278C825.172 161.862 831.692 146.361 831.818 130.153V129.675Z" fill="#2164F3"/>
</svg>
